NDIME= 2
NPOIN= 720
0.000000 0.000000 0
0.000963 0.009486 1
0.007533 0.019598 2
0.019693 0.030193 3
0.037364 0.041048 4
0.060394 0.051876 5
0.088560 0.062343 6
0.121566 0.072094 7
0.159039 0.080773 8
0.200538 0.088046 9
0.245557 0.093621 10
0.293534 0.097264 11
0.343868 0.098810 12
0.395929 0.098171 13
0.448329 0.095666 14
0.501176 0.091816 15
0.553933 0.086754 16
0.606007 0.080639 17
0.656819 0.073655 18
0.705811 0.066003 19
0.752451 0.057897 20
0.796239 0.049564 21
0.836711 0.041236 22
0.873444 0.033152 23
0.906059 0.025547 24
0.934223 0.018648 25
0.957653 0.012669 26
0.976117 0.007801 27
0.989435 0.004203 28
0.997477 0.001994 29
1.000167 0.001249 30
0.997045 -0.001265 31
0.988713 -0.001316 32
0.974939 -0.001409 33
0.955893 -0.001557 34
0.931803 -0.001782 35
0.902958 -0.002109 36
0.869701 -0.002570 37
0.832420 -0.003202 38
0.791547 -0.004042 39
0.747549 -0.005119 40
0.700926 -0.006454 41
0.652198 -0.008049 42
0.601904 -0.009883 43
0.550595 -0.011906 44
0.498824 -0.014038 45
0.447143 -0.016173 46
0.396159 -0.018179 47
0.347115 -0.020295 48
0.299729 -0.022606 49
0.254443 -0.024871 50
0.211676 -0.026843 51
0.171830 -0.028284 52
0.135289 -0.028970 53
0.102423 -0.028706 54
0.073581 -0.027324 55
0.049091 -0.024692 56
0.029250 -0.020704 57
0.014319 -0.015287 58
0.004515 -0.008394 59
0.909091 0.000000 60
0.904987 0.103649 61
0.896073 0.206827 62
0.882500 0.308373 63
0.864463 0.407077 64
0.842199 0.501705 65
0.815979 0.591026 66
0.786101 0.673841 67
0.752882 0.749016 68
0.716658 0.815512 69
0.677779 0.872406 70
0.636610 0.918917 71
0.593532 0.954424 72
0.548946 0.978471 73
0.502598 0.991080 74
0.455615 0.992560 75
0.408550 0.982978 76
0.361905 0.962533 77
0.316184 0.931556 78
0.271885 0.890498 79
0.229501 0.839929 80
0.189503 0.780528 81
0.152346 0.713074 82
0.118454 0.638439 83
0.088220 0.557575 84
0.061997 0.471498 85
0.040098 0.381278 86
0.022782 0.288017 87
0.010261 0.192831 88
0.002687 0.096838 89
0.000151 0.001135 90
0.002293 -0.096176 91
0.009605 -0.190207 92
0.021712 -0.282205 93
0.038497 -0.371176 94
0.059798 -0.456165 95
0.085401 -0.536267 96
0.115051 -0.610637 97
0.148445 -0.678498 98
0.185238 -0.739144 99
0.225045 -0.791949 100
0.267445 -0.836363 101
0.311983 -0.871914 102
0.358175 -0.898210 103
0.405515 -0.914934 104
0.453476 -0.921853 105
0.501519 -0.918813 106
0.549155 -0.905751 107
0.596483 -0.883047 108
0.642242 -0.851047 109
0.685858 -0.809906 110
0.726783 -0.759873 111
0.764510 -0.701299 112
0.798576 -0.634637 113
0.828582 -0.560446 114
0.854188 -0.479386 115
0.875124 -0.392207 116
0.891188 -0.299746 117
0.902243 -0.202908 118
0.908215 -0.102657 119
1.818182 0.000000 120
1.809010 0.197813 121
1.784614 0.394056 122
1.745306 0.586553 123
1.691562 0.773106 124
1.624005 0.951535 125
1.543398 1.119708 126
1.450636 1.275587 127
1.346724 1.417260 128
1.232777 1.542978 129
1.110001 1.651191 130
0.979685 1.740571 131
0.843196 1.810038 132
0.701963 1.858772 133
0.556866 1.886494 134
0.410053 1.893304 135
0.263166 1.879202 136
0.117803 1.844427 137
-0.024452 1.789457 138
-0.162040 1.714994 139
-0.293449 1.621962 140
-0.417232 1.511492 141
-0.532019 1.384911 142
-0.636536 1.243726 143
-0.729619 1.089602 144
-0.810228 0.924348 145
-0.877458 0.749887 146
-0.930552 0.568232 147
-0.968912 0.381460 148
-0.992104 0.191683 149
-0.999864 0.001022 150
-0.992458 -0.191087 151
-0.969504 -0.379098 152
-0.931516 -0.563002 153
-0.878898 -0.740795 154
-0.812208 -0.910549 155
-0.732156 -1.070426 156
-0.639599 -1.218704 157
-0.535531 -1.353793 158
-0.421071 -1.474247 159
-0.297460 -1.578780 160
-0.166036 -1.666272 161
-0.028233 -1.735779 162
0.114446 -1.786536 163
0.260435 -1.817963 164
0.408129 -1.829668 165
0.555896 -1.821454 166
0.702152 -1.793324 167
0.845852 -1.745799 168
0.984754 -1.679488 169
1.117272 -1.594941 170
1.241890 -1.492903 171
1.357189 -1.374314 172
1.461864 -1.240304 173
1.554740 -1.092187 174
1.634794 -0.931447 175
1.701157 -0.759723 176
1.753126 -0.578789 177
1.790166 -0.390529 178
1.811916 -0.196919 179
2.727273 0.000000 180
2.713033 0.291976 181
2.673154 0.581285 182
2.608113 0.864732 183
2.518661 1.139135 184
2.405810 1.401364 185
2.270817 1.648391 186
2.115170 1.877334 187
1.940567 2.085503 188
1.748897 2.270444 189
1.542223 2.429975 190
1.322761 2.562225 191
1.092860 2.665652 192
0.854980 2.739072 193
0.611135 2.781908 194
0.364492 2.794048 195
0.117783 2.775426 196
-0.126299 2.726322 197
-0.365087 2.647358 198
-0.595965 2.539489 199
-0.816400 2.403994 200
-1.023968 2.242456 201
-1.216385 2.056749 202
-1.391526 1.849012 203
-1.547458 1.621630 204
-1.682453 1.377199 205
-1.795013 1.118496 206
-1.883887 0.848447 207
-1.948086 0.570088 208
-1.986894 0.286528 209
-1.999879 0.000908 210
-1.987209 -0.285998 211
-1.948612 -0.567989 212
-1.884744 -0.843798 213
-1.796293 -1.110414 214
-1.684213 -1.364932 215
-1.549713 -1.604584 216
-1.394249 -1.826771 217
-1.219506 -2.029088 218
-1.027380 -2.209349 219
-0.819964 -2.365610 220
-0.599517 -2.496182 221
-0.368448 -2.599645 222
-0.129283 -2.674863 223
0.115355 -2.720991 224
0.362781 -2.737482 225
0.610272 -2.724094 226
0.855148 -2.680896 227
1.095221 -2.608551 228
1.327267 -2.507928 229
1.548686 -2.379975 230
1.756997 -2.225932 231
1.949869 -2.047329 232
2.125151 -1.845971 233
2.280899 -1.623928 234
2.415401 -1.383509 235
2.527190 -1.127239 236
2.615063 -0.857831 237
2.678089 -0.578150 238
2.715616 -0.291182 239
3.636364 0.000000 240
3.617056 0.386140 241
3.561694 0.768514 242
3.470920 1.142912 243
3.345760 1.505164 244
3.187616 1.851194 245
2.998236 2.177074 246
2.779705 2.479080 247
2.534409 2.753746 248
2.265016 2.997909 249
1.974445 3.208760 250
1.665837 3.383879 251
1.342524 3.521266 252
1.007997 3.619373 253
0.665404 3.677322 254
0.318930 3.694792 255
-0.027600 3.671650 256
-0.370402 3.608216 257
-0.705722 3.505259 258
-1.029890 3.363985 259
-1.339350 3.186027 260
-1.630704 2.973420 261
-1.900750 2.728586 262
-2.146517 2.454299 263
-2.365297 2.153658 264
-2.554678 1.830049 265
-2.712568 1.487105 266
-2.837222 1.128663 267
-2.927260 0.758717 268
-2.981685 0.381372 269
-2.999894 0.000795 270
-2.981960 -0.380909 271
-2.927720 -0.756880 272
-2.837971 -1.124595 273
-2.713688 -1.480033 274
-2.556218 -1.819316 275
-2.367270 -2.138743 276
-2.148899 -2.434838 277
-1.903481 -2.704383 278
-1.633689 -2.944452 279
-1.342469 -3.152441 280
-1.032999 -3.326091 281
-0.708663 -3.463510 282
-0.373012 -3.563190 283
-0.029725 -3.624020 284
0.317433 -3.645297 285
0.664649 -3.626735 286
1.008144 -3.568469 287
1.344589 -3.471303 288
1.669779 -3.336369 289
1.980100 -3.165010 290
2.272104 -2.958962 291
2.542549 -2.720344 292
2.788438 -2.451638 293
3.007058 -2.155668 294
3.196008 -1.835570 295
3.353223 -1.494755 296
3.477001 -1.136873 297
3.566013 -0.765771 298
3.619316 -0.385445 299
4.545455 0.000000 300
4.521080 0.480303 301
4.450234 0.955743 302
4.333726 1.421092 303
4.172860 1.871193 304
3.969421 2.301023 305
3.725656 2.705756 306
3.444240 3.080827 307
3.128252 3.421989 308
2.781136 3.725375 309
2.406667 3.987545 310
2.008912 4.205532 311
1.592187 4.376880 312
1.161014 4.499673 313
0.719672 4.572736 314
0.273369 4.595536 315
-0.172984 4.567874 316
-0.614504 4.490110 317
-1.046358 4.363160 318
-1.463815 4.188481 319
-1.862300 3.968059 320
-2.237439 3.704385 321
-2.585115 3.400424 322
-2.901507 3.059586 323
-3.183136 2.685686 324
-3.426903 2.282899 325
-3.630123 1.855714 326
-3.790557 1.408878 327
-3.906434 0.947346 328
-3.976476 0.476217 329
-3.999909 0.000681 330
-3.976712 -0.475819 331
-3.906828 -0.945771 332
-3.791199 -1.405391 333
-3.631083 -1.849652 334
-3.428223 -2.273699 335
-3.184827 -2.672901 336
-2.903549 -3.042905 337
-2.587456 -3.379678 338
-2.239998 -3.679555 339
-1.864973 -3.939271 340
-1.466480 -4.156000 341
-1.048878 -4.327375 342
-0.616742 -4.451516 343
-0.174805 -4.527048 344
0.272086 -4.553112 345
0.719025 -4.529376 346
1.161140 -4.456041 347
1.593958 -4.334054 348
2.012292 -4.164810 349
2.411515 -3.950045 350
2.787211 -3.691992 351
3.135228 -3.393359 352
3.451725 -3.057305 353
3.733217 -2.687409 354
3.976614 -2.287631 355
4.179256 -1.862271 356
4.338939 -1.415916 357
4.453936 -0.953392 358
4.523017 -0.479708 359
5.454545 0.000000 360
5.425103 0.574467 361
5.338775 1.142972 362
5.196533 1.699271 363
4.999959 2.237222 364
4.751227 2.750853 365
4.453075 3.234439 366
4.108775 3.682573 367
3.722094 4.090232 368
3.297255 4.452841 369
2.838889 4.766330 370
2.351988 5.027186 371
1.841851 5.232495 372
1.314032 5.379974 373
0.773941 5.468150 374
0.227807 5.496280 375
-0.318367 5.464098 376
-0.858606 5.372005 377
-1.386993 5.221061 378
-1.897740 5.012976 379
-2.385250 4.750092 380
-2.844175 4.435349 381
-3.269480 4.072261 382
-3.656497 3.664873 383
-4.000975 3.217714 384
-4.299128 2.735749 385
-4.547678 2.224322 386
-4.743891 1.689093 387
-4.885607 1.135974 388
-4.971266 0.571062 389
-4.999924 0.000568 390
-4.971463 -0.570730 391
-4.885936 -1.134662 392
-4.744427 -1.686188 393
-4.548479 -2.219271 394
-4.300228 -2.728083 395
-4.002384 -3.207060 396
-3.658199 -3.650972 397
-3.271431 -4.054973 398
-2.846307 -4.414657 399
-2.387478 -4.726102 400
-1.899961 -4.985909 401
-1.389094 -5.191240 402
-0.860471 -5.339843 403
-0.319885 -5.430077 404
0.226738 -5.460926 405
0.773402 -5.432016 406
1.314136 -5.343614 407
1.843327 -5.196806 408
2.354804 -4.993251 409
2.842929 -4.735080 410
3.302318 -4.425022 411
3.727908 -4.066373 412
4.115012 -3.662971 413
4.459376 -3.219149 414
4.757221 -2.739693 415
5.005289 -2.229787 416
5.200876 -1.694958 417
5.341859 -1.141013 418
5.426717 -0.573971 419
6.363636 0.000000 420
6.329126 0.668630 421
6.227315 1.330201 422
6.059339 1.977451 423
5.827058 2.603251 424
5.533032 3.200682 425
5.180494 3.763122 426
4.773309 4.284320 427
4.315936 4.758476 428
3.813375 5.180307 429
3.271111 5.545115 430
2.695064 5.848840 431
2.091515 6.088109 432
1.467049 6.260274 433
0.828210 6.363563 434
0.182246 6.397024 435
-0.463751 6.360322 436
-1.102708 6.253899 437
-1.727629 6.078961 438
-2.331666 5.837472 439
-2.908200 5.532124 440
-3.450910 5.166313 441
-3.953845 4.744099 442
-4.411487 4.270159 443
-4.818814 3.749741 444
-5.171353 3.188599 445
-5.465234 2.592931 446
-5.697226 1.969309 447
-5.864781 1.324603 448
-5.966057 0.665906 449
-5.999939 0.000454 450
-5.966214 -0.665641 451
-5.865044 -1.323553 452
-5.697654 -1.966984 453
-5.465874 -2.588890 454
-5.172233 -3.182466 455
-4.819942 -3.741218 456
-4.412849 -4.259038 457
-3.955406 -4.730268 458
-3.452616 -5.149760 459
-2.909982 -5.512932 460
-2.333442 -5.815818 461
-1.729309 -6.055105 462
-1.104200 -6.228169 463
-0.464965 -6.333105 464
0.181390 -6.368741 465
0.827778 -6.334657 466
1.467132 -6.231186 467
2.092695 -6.059558 468
2.697317 -5.821692 469
3.274343 -5.520115 470
3.817425 -5.158051 471
4.320587 -4.739388 472
4.778299 -4.268638 473
5.185535 -3.750890 474
5.537827 -3.191754 475
5.831322 -2.597303 476
6.062814 -1.974000 477
6.229783 -1.328633 478
6.330417 -0.668233 479
7.272727 0.000000 480
7.233149 0.762794 481
7.115855 1.517430 482
6.922146 2.255631 483
6.654157 2.969280 484
6.314838 3.650512 485
5.907913 4.291804 486
5.437844 4.886066 487
4.909779 5.426719 488
4.329494 5.907773 489
3.703334 6.323900 490
3.038139 6.670493 491
2.341179 6.943723 492
1.620066 7.140575 493
0.882479 7.258977 494
0.136684 7.297768 495
-0.609134 7.256547 496
-1.346810 7.135793 497
-2.068264 6.936862 498
-2.765591 6.661968 499
-3.431150 6.314157 500
-4.057646 5.897277 501
-4.638210 5.415936 502
-5.166478 4.875446 503
-5.636653 4.281769 504
-6.043579 3.641449 505
-6.382789 2.961540 506
-6.650561 2.249524 507
-6.843955 1.513231 508
-6.960847 0.760751 509
-6.999955 0.000341 510
-6.960965 -0.760552 511
-6.844152 -1.512444 512
-6.650882 -2.247780 513
-6.383269 -2.958509 514
-6.044239 -3.636850 515
-5.637499 -4.275377 516
-5.167499 -4.867105 517
-4.639381 -5.405563 518
-4.058926 -5.884862 519
-3.432487 -6.299763 520
-2.766923 -6.645727 521
-2.069524 -6.918970 522
-1.347929 -7.116496 523
-0.610045 -7.236134 524
0.136043 -7.276556 525
0.882155 -7.237297 526
1.620128 -7.118759 527
2.342064 -6.922310 528
3.039829 -6.650132 529
3.705757 -6.305150 530
4.332532 -5.891081 531
4.913267 -5.412403 532
5.441587 -4.874305 533
5.911693 -4.282631 534
6.318434 -3.643816 535
6.657355 -2.964819 536
6.924752 -2.253043 537
7.117706 -1.516254 538
7.234118 -0.762496 539
8.181818 0.000000 540
8.137172 0.856958 541
8.004395 1.704659 542
7.784952 2.533811 543
7.481256 3.335309 544
7.096643 4.100341 545
6.635332 4.820487 546
6.102379 5.487813 547
5.503621 6.094962 548
4.845614 6.635238 549
4.135556 7.102684 550
3.381215 7.492147 551
2.590842 7.799337 552
1.773083 8.020875 553
0.936747 8.154391 554
0.091123 8.198512 555
-0.754518 8.152771 556
-1.590913 8.017687 557
-2.408899 7.794763 558
-3.199516 7.486463 559
-3.954100 7.096189 560
-4.664381 6.628242 561
-5.322576 6.087773 562
-5.921468 5.480733 563
-6.454492 4.813797 564
-6.915804 4.094300 565
-7.300344 3.330149 566
-7.603896 2.529739 567
-7.823129 1.701860 568
-7.955638 0.855595 569
-7.999970 0.000227 570
-7.955716 -0.855463 571
-7.823260 -1.701335 572
-7.604110 -2.528577 573
-7.300664 -3.328128 574
-6.916244 -4.091233 575
-6.455056 -4.809535 576
-5.922148 -5.475172 577
-5.323356 -6.080858 578
-4.665235 -6.619965 579
-3.954991 -7.086593 580
-3.200404 -7.475636 581
-2.409739 -7.782835 582
-1.591658 -8.004823 583
-0.755125 -8.139162 584
0.090695 -8.184371 585
0.936532 -8.139938 586
1.773125 -8.006331 587
2.591433 -7.785062 588
3.382342 -7.478573 589
4.137172 -7.090184 590
4.847639 -6.624111 591
5.505947 -6.085418 592
6.104874 -5.479972 593
6.637852 -4.814371 594
7.099041 -4.095877 595
7.483388 -3.332335 596
7.786690 -2.532085 597
8.005629 -1.703875 598
8.137818 -0.856759 599
9.090909 0.000000 600
9.041196 0.951121 601
8.892936 1.891888 602
8.647759 2.811990 603
8.308355 3.701337 604
7.878449 4.550171 605
7.362751 5.349170 606
6.766914 6.089560 607
6.097464 6.763205 608
5.361733 7.362704 609
4.567778 7.881469 610
3.724291 8.313801 611
2.840506 8.654951 612
1.926100 8.901176 613
0.991016 9.049805 614
0.045561 9.099256 615
-0.899901 9.048995 616
-1.835015 8.899582 617
-2.749535 8.652664 618
-3.633441 8.310959 619
-4.477050 7.878222 620
-5.271117 7.359206 621
-6.006941 6.759611 622
-6.676458 6.086019 623
-7.272331 5.345825 624
-7.788029 4.547150 625
-8.217899 3.698758 626
-8.557230 2.809955 627
-8.802302 1.890488 628
-8.950428 0.950440 629
-8.999985 0.000114 630
-8.950468 -0.950374 631
-8.802368 -1.890226 632
-8.557337 -2.809373 633
-8.218059 -3.697747 634
-7.788249 -4.545617 635
-7.272613 -5.343694 636
-6.676798 -6.083239 637
-6.007331 -6.756153 638
-5.271544 -7.355067 639
-4.477496 -7.873424 640
-3.633885 -8.305545 641
-2.749955 -8.646700 642
-1.835388 -8.893149 643
-0.900205 -9.042190 644
0.045348 -9.092185 645
0.990908 -9.042578 646
1.926121 -8.893904 647
2.840801 -8.647813 648
3.724854 -8.307014 649
4.568586 -7.875219 650
5.362746 -7.357140 651
6.098626 -6.758433 652
6.768161 -6.085639 653
7.364011 -5.346112 654
7.879647 -4.547939 655
8.309422 -3.699851 656
8.648627 -2.811128 657
8.893553 -1.891496 658
9.041519 -0.951022 659
10.000000 0.000000 660
9.945219 1.045285 661
9.781476 2.079117 662
9.510565 3.090170 663
9.135455 4.067366 664
8.660254 5.000000 665
8.090170 5.877853 666
7.431448 6.691306 667
6.691306 7.431448 668
5.877853 8.090170 669
5.000000 8.660254 670
4.067366 9.135455 671
3.090170 9.510565 672
2.079117 9.781476 673
1.045285 9.945219 674
0.000000 10.000000 675
-1.045285 9.945219 676
-2.079117 9.781476 677
-3.090170 9.510565 678
-4.067366 9.135455 679
-5.000000 8.660254 680
-5.877853 8.090170 681
-6.691306 7.431448 682
-7.431448 6.691306 683
-8.090170 5.877853 684
-8.660254 5.000000 685
-9.135455 4.067366 686
-9.510565 3.090170 687
-9.781476 2.079117 688
-9.945219 1.045285 689
-10.000000 0.000000 690
-9.945219 -1.045285 691
-9.781476 -2.079117 692
-9.510565 -3.090170 693
-9.135455 -4.067366 694
-8.660254 -5.000000 695
-8.090170 -5.877853 696
-7.431448 -6.691306 697
-6.691306 -7.431448 698
-5.877853 -8.090170 699
-5.000000 -8.660254 700
-4.067366 -9.135455 701
-3.090170 -9.510565 702
-2.079117 -9.781476 703
-1.045285 -9.945219 704
-0.000000 -10.000000 705
1.045285 -9.945219 706
2.079117 -9.781476 707
3.090170 -9.510565 708
4.067366 -9.135455 709
5.000000 -8.660254 710
5.877853 -8.090170 711
6.691306 -7.431448 712
7.431448 -6.691306 713
8.090170 -5.877853 714
8.660254 -5.000000 715
9.135455 -4.067366 716
9.510565 -3.090170 717
9.781476 -2.079117 718
9.945219 -1.045285 719
NELEM= 660
9 0 1 61 60
9 1 2 62 61
9 2 3 63 62
9 3 4 64 63
9 4 5 65 64
9 5 6 66 65
9 6 7 67 66
9 7 8 68 67
9 8 9 69 68
9 9 10 70 69
9 10 11 71 70
9 11 12 72 71
9 12 13 73 72
9 13 14 74 73
9 14 15 75 74
9 15 16 76 75
9 16 17 77 76
9 17 18 78 77
9 18 19 79 78
9 19 20 80 79
9 20 21 81 80
9 21 22 82 81
9 22 23 83 82
9 23 24 84 83
9 24 25 85 84
9 25 26 86 85
9 26 27 87 86
9 27 28 88 87
9 28 29 89 88
9 29 30 90 89
9 30 31 91 90
9 31 32 92 91
9 32 33 93 92
9 33 34 94 93
9 34 35 95 94
9 35 36 96 95
9 36 37 97 96
9 37 38 98 97
9 38 39 99 98
9 39 40 100 99
9 40 41 101 100
9 41 42 102 101
9 42 43 103 102
9 43 44 104 103
9 44 45 105 104
9 45 46 106 105
9 46 47 107 106
9 47 48 108 107
9 48 49 109 108
9 49 50 110 109
9 50 51 111 110
9 51 52 112 111
9 52 53 113 112
9 53 54 114 113
9 54 55 115 114
9 55 56 116 115
9 56 57 117 116
9 57 58 118 117
9 58 59 119 118
9 59 0 60 119
9 60 61 121 120
9 61 62 122 121
9 62 63 123 122
9 63 64 124 123
9 64 65 125 124
9 65 66 126 125
9 66 67 127 126
9 67 68 128 127
9 68 69 129 128
9 69 70 130 129
9 70 71 131 130
9 71 72 132 131
9 72 73 133 132
9 73 74 134 133
9 74 75 135 134
9 75 76 136 135
9 76 77 137 136
9 77 78 138 137
9 78 79 139 138
9 79 80 140 139
9 80 81 141 140
9 81 82 142 141
9 82 83 143 142
9 83 84 144 143
9 84 85 145 144
9 85 86 146 145
9 86 87 147 146
9 87 88 148 147
9 88 89 149 148
9 89 90 150 149
9 90 91 151 150
9 91 92 152 151
9 92 93 153 152
9 93 94 154 153
9 94 95 155 154
9 95 96 156 155
9 96 97 157 156
9 97 98 158 157
9 98 99 159 158
9 99 100 160 159
9 100 101 161 160
9 101 102 162 161
9 102 103 163 162
9 103 104 164 163
9 104 105 165 164
9 105 106 166 165
9 106 107 167 166
9 107 108 168 167
9 108 109 169 168
9 109 110 170 169
9 110 111 171 170
9 111 112 172 171
9 112 113 173 172
9 113 114 174 173
9 114 115 175 174
9 115 116 176 175
9 116 117 177 176
9 117 118 178 177
9 118 119 179 178
9 119 60 120 179
9 120 121 181 180
9 121 122 182 181
9 122 123 183 182
9 123 124 184 183
9 124 125 185 184
9 125 126 186 185
9 126 127 187 186
9 127 128 188 187
9 128 129 189 188
9 129 130 190 189
9 130 131 191 190
9 131 132 192 191
9 132 133 193 192
9 133 134 194 193
9 134 135 195 194
9 135 136 196 195
9 136 137 197 196
9 137 138 198 197
9 138 139 199 198
9 139 140 200 199
9 140 141 201 200
9 141 142 202 201
9 142 143 203 202
9 143 144 204 203
9 144 145 205 204
9 145 146 206 205
9 146 147 207 206
9 147 148 208 207
9 148 149 209 208
9 149 150 210 209
9 150 151 211 210
9 151 152 212 211
9 152 153 213 212
9 153 154 214 213
9 154 155 215 214
9 155 156 216 215
9 156 157 217 216
9 157 158 218 217
9 158 159 219 218
9 159 160 220 219
9 160 161 221 220
9 161 162 222 221
9 162 163 223 222
9 163 164 224 223
9 164 165 225 224
9 165 166 226 225
9 166 167 227 226
9 167 168 228 227
9 168 169 229 228
9 169 170 230 229
9 170 171 231 230
9 171 172 232 231
9 172 173 233 232
9 173 174 234 233
9 174 175 235 234
9 175 176 236 235
9 176 177 237 236
9 177 178 238 237
9 178 179 239 238
9 179 120 180 239
9 180 181 241 240
9 181 182 242 241
9 182 183 243 242
9 183 184 244 243
9 184 185 245 244
9 185 186 246 245
9 186 187 247 246
9 187 188 248 247
9 188 189 249 248
9 189 190 250 249
9 190 191 251 250
9 191 192 252 251
9 192 193 253 252
9 193 194 254 253
9 194 195 255 254
9 195 196 256 255
9 196 197 257 256
9 197 198 258 257
9 198 199 259 258
9 199 200 260 259
9 200 201 261 260
9 201 202 262 261
9 202 203 263 262
9 203 204 264 263
9 204 205 265 264
9 205 206 266 265
9 206 207 267 266
9 207 208 268 267
9 208 209 269 268
9 209 210 270 269
9 210 211 271 270
9 211 212 272 271
9 212 213 273 272
9 213 214 274 273
9 214 215 275 274
9 215 216 276 275
9 216 217 277 276
9 217 218 278 277
9 218 219 279 278
9 219 220 280 279
9 220 221 281 280
9 221 222 282 281
9 222 223 283 282
9 223 224 284 283
9 224 225 285 284
9 225 226 286 285
9 226 227 287 286
9 227 228 288 287
9 228 229 289 288
9 229 230 290 289
9 230 231 291 290
9 231 232 292 291
9 232 233 293 292
9 233 234 294 293
9 234 235 295 294
9 235 236 296 295
9 236 237 297 296
9 237 238 298 297
9 238 239 299 298
9 239 180 240 299
9 240 241 301 300
9 241 242 302 301
9 242 243 303 302
9 243 244 304 303
9 244 245 305 304
9 245 246 306 305
9 246 247 307 306
9 247 248 308 307
9 248 249 309 308
9 249 250 310 309
9 250 251 311 310
9 251 252 312 311
9 252 253 313 312
9 253 254 314 313
9 254 255 315 314
9 255 256 316 315
9 256 257 317 316
9 257 258 318 317
9 258 259 319 318
9 259 260 320 319
9 260 261 321 320
9 261 262 322 321
9 262 263 323 322
9 263 264 324 323
9 264 265 325 324
9 265 266 326 325
9 266 267 327 326
9 267 268 328 327
9 268 269 329 328
9 269 270 330 329
9 270 271 331 330
9 271 272 332 331
9 272 273 333 332
9 273 274 334 333
9 274 275 335 334
9 275 276 336 335
9 276 277 337 336
9 277 278 338 337
9 278 279 339 338
9 279 280 340 339
9 280 281 341 340
9 281 282 342 341
9 282 283 343 342
9 283 284 344 343
9 284 285 345 344
9 285 286 346 345
9 286 287 347 346
9 287 288 348 347
9 288 289 349 348
9 289 290 350 349
9 290 291 351 350
9 291 292 352 351
9 292 293 353 352
9 293 294 354 353
9 294 295 355 354
9 295 296 356 355
9 296 297 357 356
9 297 298 358 357
9 298 299 359 358
9 299 240 300 359
9 300 301 361 360
9 301 302 362 361
9 302 303 363 362
9 303 304 364 363
9 304 305 365 364
9 305 306 366 365
9 306 307 367 366
9 307 308 368 367
9 308 309 369 368
9 309 310 370 369
9 310 311 371 370
9 311 312 372 371
9 312 313 373 372
9 313 314 374 373
9 314 315 375 374
9 315 316 376 375
9 316 317 377 376
9 317 318 378 377
9 318 319 379 378
9 319 320 380 379
9 320 321 381 380
9 321 322 382 381
9 322 323 383 382
9 323 324 384 383
9 324 325 385 384
9 325 326 386 385
9 326 327 387 386
9 327 328 388 387
9 328 329 389 388
9 329 330 390 389
9 330 331 391 390
9 331 332 392 391
9 332 333 393 392
9 333 334 394 393
9 334 335 395 394
9 335 336 396 395
9 336 337 397 396
9 337 338 398 397
9 338 339 399 398
9 339 340 400 399
9 340 341 401 400
9 341 342 402 401
9 342 343 403 402
9 343 344 404 403
9 344 345 405 404
9 345 346 406 405
9 346 347 407 406
9 347 348 408 407
9 348 349 409 408
9 349 350 410 409
9 350 351 411 410
9 351 352 412 411
9 352 353 413 412
9 353 354 414 413
9 354 355 415 414
9 355 356 416 415
9 356 357 417 416
9 357 358 418 417
9 358 359 419 418
9 359 300 360 419
9 360 361 421 420
9 361 362 422 421
9 362 363 423 422
9 363 364 424 423
9 364 365 425 424
9 365 366 426 425
9 366 367 427 426
9 367 368 428 427
9 368 369 429 428
9 369 370 430 429
9 370 371 431 430
9 371 372 432 431
9 372 373 433 432
9 373 374 434 433
9 374 375 435 434
9 375 376 436 435
9 376 377 437 436
9 377 378 438 437
9 378 379 439 438
9 379 380 440 439
9 380 381 441 440
9 381 382 442 441
9 382 383 443 442
9 383 384 444 443
9 384 385 445 444
9 385 386 446 445
9 386 387 447 446
9 387 388 448 447
9 388 389 449 448
9 389 390 450 449
9 390 391 451 450
9 391 392 452 451
9 392 393 453 452
9 393 394 454 453
9 394 395 455 454
9 395 396 456 455
9 396 397 457 456
9 397 398 458 457
9 398 399 459 458
9 399 400 460 459
9 400 401 461 460
9 401 402 462 461
9 402 403 463 462
9 403 404 464 463
9 404 405 465 464
9 405 406 466 465
9 406 407 467 466
9 407 408 468 467
9 408 409 469 468
9 409 410 470 469
9 410 411 471 470
9 411 412 472 471
9 412 413 473 472
9 413 414 474 473
9 414 415 475 474
9 415 416 476 475
9 416 417 477 476
9 417 418 478 477
9 418 419 479 478
9 419 360 420 479
9 420 421 481 480
9 421 422 482 481
9 422 423 483 482
9 423 424 484 483
9 424 425 485 484
9 425 426 486 485
9 426 427 487 486
9 427 428 488 487
9 428 429 489 488
9 429 430 490 489
9 430 431 491 490
9 431 432 492 491
9 432 433 493 492
9 433 434 494 493
9 434 435 495 494
9 435 436 496 495
9 436 437 497 496
9 437 438 498 497
9 438 439 499 498
9 439 440 500 499
9 440 441 501 500
9 441 442 502 501
9 442 443 503 502
9 443 444 504 503
9 444 445 505 504
9 445 446 506 505
9 446 447 507 506
9 447 448 508 507
9 448 449 509 508
9 449 450 510 509
9 450 451 511 510
9 451 452 512 511
9 452 453 513 512
9 453 454 514 513
9 454 455 515 514
9 455 456 516 515
9 456 457 517 516
9 457 458 518 517
9 458 459 519 518
9 459 460 520 519
9 460 461 521 520
9 461 462 522 521
9 462 463 523 522
9 463 464 524 523
9 464 465 525 524
9 465 466 526 525
9 466 467 527 526
9 467 468 528 527
9 468 469 529 528
9 469 470 530 529
9 470 471 531 530
9 471 472 532 531
9 472 473 533 532
9 473 474 534 533
9 474 475 535 534
9 475 476 536 535
9 476 477 537 536
9 477 478 538 537
9 478 479 539 538
9 479 420 480 539
9 480 481 541 540
9 481 482 542 541
9 482 483 543 542
9 483 484 544 543
9 484 485 545 544
9 485 486 546 545
9 486 487 547 546
9 487 488 548 547
9 488 489 549 548
9 489 490 550 549
9 490 491 551 550
9 491 492 552 551
9 492 493 553 552
9 493 494 554 553
9 494 495 555 554
9 495 496 556 555
9 496 497 557 556
9 497 498 558 557
9 498 499 559 558
9 499 500 560 559
9 500 501 561 560
9 501 502 562 561
9 502 503 563 562
9 503 504 564 563
9 504 505 565 564
9 505 506 566 565
9 506 507 567 566
9 507 508 568 567
9 508 509 569 568
9 509 510 570 569
9 510 511 571 570
9 511 512 572 571
9 512 513 573 572
9 513 514 574 573
9 514 515 575 574
9 515 516 576 575
9 516 517 577 576
9 517 518 578 577
9 518 519 579 578
9 519 520 580 579
9 520 521 581 580
9 521 522 582 581
9 522 523 583 582
9 523 524 584 583
9 524 525 585 584
9 525 526 586 585
9 526 527 587 586
9 527 528 588 587
9 528 529 589 588
9 529 530 590 589
9 530 531 591 590
9 531 532 592 591
9 532 533 593 592
9 533 534 594 593
9 534 535 595 594
9 535 536 596 595
9 536 537 597 596
9 537 538 598 597
9 538 539 599 598
9 539 480 540 599
9 540 541 601 600
9 541 542 602 601
9 542 543 603 602
9 543 544 604 603
9 544 545 605 604
9 545 546 606 605
9 546 547 607 606
9 547 548 608 607
9 548 549 609 608
9 549 550 610 609
9 550 551 611 610
9 551 552 612 611
9 552 553 613 612
9 553 554 614 613
9 554 555 615 614
9 555 556 616 615
9 556 557 617 616
9 557 558 618 617
9 558 559 619 618
9 559 560 620 619
9 560 561 621 620
9 561 562 622 621
9 562 563 623 622
9 563 564 624 623
9 564 565 625 624
9 565 566 626 625
9 566 567 627 626
9 567 568 628 627
9 568 569 629 628
9 569 570 630 629
9 570 571 631 630
9 571 572 632 631
9 572 573 633 632
9 573 574 634 633
9 574 575 635 634
9 575 576 636 635
9 576 577 637 636
9 577 578 638 637
9 578 579 639 638
9 579 580 640 639
9 580 581 641 640
9 581 582 642 641
9 582 583 643 642
9 583 584 644 643
9 584 585 645 644
9 585 586 646 645
9 586 587 647 646
9 587 588 648 647
9 588 589 649 648
9 589 590 650 649
9 590 591 651 650
9 591 592 652 651
9 592 593 653 652
9 593 594 654 653
9 594 595 655 654
9 595 596 656 655
9 596 597 657 656
9 597 598 658 657
9 598 599 659 658
9 599 540 600 659
9 600 601 661 660
9 601 602 662 661
9 602 603 663 662
9 603 604 664 663
9 604 605 665 664
9 605 606 666 665
9 606 607 667 666
9 607 608 668 667
9 608 609 669 668
9 609 610 670 669
9 610 611 671 670
9 611 612 672 671
9 612 613 673 672
9 613 614 674 673
9 614 615 675 674
9 615 616 676 675
9 616 617 677 676
9 617 618 678 677
9 618 619 679 678
9 619 620 680 679
9 620 621 681 680
9 621 622 682 681
9 622 623 683 682
9 623 624 684 683
9 624 625 685 684
9 625 626 686 685
9 626 627 687 686
9 627 628 688 687
9 628 629 689 688
9 629 630 690 689
9 630 631 691 690
9 631 632 692 691
9 632 633 693 692
9 633 634 694 693
9 634 635 695 694
9 635 636 696 695
9 636 637 697 696
9 637 638 698 697
9 638 639 699 698
9 639 640 700 699
9 640 641 701 700
9 641 642 702 701
9 642 643 703 702
9 643 644 704 703
9 644 645 705 704
9 645 646 706 705
9 646 647 707 706
9 647 648 708 707
9 648 649 709 708
9 649 650 710 709
9 650 651 711 710
9 651 652 712 711
9 652 653 713 712
9 653 654 714 713
9 654 655 715 714
9 655 656 716 715
9 656 657 717 716
9 657 658 718 717
9 658 659 719 718
9 659 600 660 719
NMARK= 2
MARKER_TAG= airfoil
MARKER_ELEMS= 60
3 0 1
3 1 2
3 2 3
3 3 4
3 4 5
3 5 6
3 6 7
3 7 8
3 8 9
3 9 10
3 10 11
3 11 12
3 12 13
3 13 14
3 14 15
3 15 16
3 16 17
3 17 18
3 18 19
3 19 20
3 20 21
3 21 22
3 22 23
3 23 24
3 24 25
3 25 26
3 26 27
3 27 28
3 28 29
3 29 30
3 30 31
3 31 32
3 32 33
3 33 34
3 34 35
3 35 36
3 36 37
3 37 38
3 38 39
3 39 40
3 40 41
3 41 42
3 42 43
3 43 44
3 44 45
3 45 46
3 46 47
3 47 48
3 48 49
3 49 50
3 50 51
3 51 52
3 52 53
3 53 54
3 54 55
3 55 56
3 56 57
3 57 58
3 58 59
3 59 0
MARKER_TAG= farfield
MARKER_ELEMS= 60
3 660 661
3 661 662
3 662 663
3 663 664
3 664 665
3 665 666
3 666 667
3 667 668
3 668 669
3 669 670
3 670 671
3 671 672
3 672 673
3 673 674
3 674 675
3 675 676
3 676 677
3 677 678
3 678 679
3 679 680
3 680 681
3 681 682
3 682 683
3 683 684
3 684 685
3 685 686
3 686 687
3 687 688
3 688 689
3 689 690
3 690 691
3 691 692
3 692 693
3 693 694
3 694 695
3 695 696
3 696 697
3 697 698
3 698 699
3 699 700
3 700 701
3 701 702
3 702 703
3 703 704
3 704 705
3 705 706
3 706 707
3 707 708
3 708 709
3 709 710
3 710 711
3 711 712
3 712 713
3 713 714
3 714 715
3 715 716
3 716 717
3 717 718
3 718 719
3 719 660
